<?xml version="1.0" encoding="utf-8"?>
<!-- Generator: Adobe Illustrator 27.0.0, SVG Export Plug-In . SVG Version: 6.00 Build 0)  -->
<svg version="1.1" id="Capa_1" xmlns="http://www.w3.org/2000/svg" xmlns:xlink="http://www.w3.org/1999/xlink" x="0px" y="0px"
	 viewBox="0 0 800 800" style="enable-background:new 0 0 800 800;" xml:space="preserve">
<g>
	<g>
		<path d="M205,512L205,512l528.8,0L800,158.3l-623,0.4l-23.1-90.4H0l0,60.3h107.1L205,512L205,512z M727.4,218.6l-43.7,233.1h-432
			L192.4,219L727.4,218.6z"/>
		<path d="M383.8,635.2c0-12.8-2.5-24.9-7-36.1h184.4c-4.5,11.2-7,23.3-7,36.1c0,53.1,43.2,96.4,96.4,96.4s96.4-43.2,96.4-96.4
			s-43.2-96.4-96.4-96.4h-363c-53.1,0-96.4,43.2-96.4,96.4s43.2,96.4,96.4,96.4C340.6,731.6,383.8,688.4,383.8,635.2z M650.5,599.1
			c19.9,0,36.1,16.2,36.1,36.1c0,19.9-16.2,36.1-36.1,36.1s-36.1-16.2-36.1-36.1C614.4,615.3,630.6,599.1,650.5,599.1z M287.5,599.1
			c19.9,0,36.1,16.2,36.1,36.1c0,19.9-16.2,36.1-36.1,36.1s-36.1-16.2-36.1-36.1C251.4,615.3,267.6,599.1,287.5,599.1z"/>
	</g>
</g>
</svg>
