<?xml version="1.0" encoding="utf-8"?>
<!-- Generator: Adobe Illustrator 27.0.0, SVG Export Plug-In . SVG Version: 6.00 Build 0)  -->
<svg version="1.1" id="Capa_1" xmlns="http://www.w3.org/2000/svg" xmlns:xlink="http://www.w3.org/1999/xlink" x="0px" y="0px"
	 viewBox="0 0 383.48 360.28" style="enable-background:new 0 0 383.48 360.28;" xml:space="preserve">
<style type="text/css">
	.st0{fill:#FFFFFF;}
</style>
<path class="st0" d="M0,45.44c0.99-0.09,1.98-0.25,2.97-0.25c27.57-0.01,55.13,0.03,82.7-0.07c2.98-0.01,4.07,1.09,4.68,3.9
	c4.28,19.73,8.81,39.4,13.05,59.14c0.7,3.28,1.9,4.46,5.37,4.45c39.79-0.12,79.58-0.07,119.37-0.08c4.75,0,4.75-0.02,3.03-4.45
	C212.25,59.22,244.37,6.22,296.42,0.46c41.73-4.62,81.23,26.14,86.32,67.61c3.94,32.14-7.93,57.56-33.97,76.47
	c-2.32,1.69-3.47,3.66-4.15,6.3c-9.84,38.14-19.78,76.25-29.54,114.41c-0.97,3.79-2.45,5.13-6.53,5.12
	c-67.48-0.14-134.97-0.1-202.45-0.1c-2.12,0-4.22-0.05-6.3,0.58c-4.71,1.43-8.22,5.88-8.14,10.5c0.08,4.54,3.46,8.81,8,10.23
	c2.2,0.68,4.43,0.62,6.67,0.62c67.98,0,135.96,0,203.95,0c5.86,0,5.86,0.01,5.87,5.93c0,4.37-0.16,8.74,0.05,13.09
	c0.15,3.18-1.13,4.11-4.15,4.01c-5.23-0.18-10.48,0.11-15.71-0.11c-3.16-0.13-4.09,0.58-3.38,3.94c3.96,18.77-7.7,36.46-26.48,40.47
	c-18.04,3.85-36-7.92-40.02-26.28c-1.11-5.07-1.03-10.17,0.2-15.2c0.54-2.2-0.07-2.89-2.3-2.89c-13.85,0.06-27.69,0.09-41.54-0.02
	c-3.29-0.03-2.51,1.77-2.14,3.63c3.83,19.36-7.81,36.99-26.95,40.86c-23.11,4.68-44.46-16.74-39.75-39.87
	c0.93-4.58,0.93-4.6-3.88-4.58c-7.6,0.03-15.16,0.32-22.32-3.26c-14.43-7.22-22.03-22.82-18.43-38.41
	c3.57-15.43,17.06-26.12,33.1-26.23c8.11-0.05,8.06-0.04,6.26-8.12C96.36,183.58,83.98,127.99,71.73,72.37
	c-0.76-3.44-2.21-4.3-5.52-4.28c-20.46,0.13-40.91,0.07-61.37,0.06c-1.62,0-3.23-0.16-4.85-0.25C0,60.42,0,52.93,0,45.44z
	 M304.56,134.99c31.21-0.69,55.72-24.3,55.79-55.77c0.08-31.21-24.16-55.72-55.6-55.79c-31.06-0.07-55.72,24.02-55.8,55.6
	C248.88,110.25,273.17,134.18,304.56,134.99z M136.98,135.53c-7.72,0-15.45,0.17-23.16-0.08c-3.51-0.11-4.24,0.83-3.44,4.21
	c2.86,12.1,5.55,24.25,8.09,36.43c0.65,3.1,2.05,3.92,5.07,3.89c12.95-0.16,25.9-0.06,38.85-0.07c6.2,0,6.26-0.14,5.71-6.24
	c-1.03-11.39-2.05-22.79-2.85-34.19c-0.22-3.1-1.4-4.05-4.37-4C152.92,135.63,144.95,135.53,136.98,135.53z M214.61,179.92
	c6.48,0,12.97-0.09,19.45,0.05c2.62,0.06,3.74-0.68,3.96-3.49c0.98-12.78,2.13-25.55,3.33-38.32c0.23-2.5-1.12-2.63-2.92-2.62
	c-5.11,0.02-10.22,0-15.33,0c-10.47,0-20.94-0.01-31.42,0.01c-1.71,0-3.63-0.37-3.36,2.55c1.19,12.89,2.34,25.79,3.37,38.69
	c0.19,2.42,1.14,3.21,3.48,3.17C201.65,179.85,208.13,179.91,214.61,179.92z M283.17,202.9c-6.72,0-13.45,0.09-20.17-0.04
	c-2.58-0.05-3.77,0.61-3.99,3.45c-0.97,12.77-2.11,25.53-3.32,38.28c-0.27,2.82,1.38,2.7,3.21,2.7c11.08,0,22.17-0.06,33.25,0.04
	c2.59,0.03,3.73-0.9,4.36-3.42c3.11-12.43,6.29-24.85,9.66-37.21c0.9-3.32-0.3-3.89-3.2-3.84
	C296.37,202.98,289.77,202.9,283.17,202.9z M147.63,202.9c-6.73,0-13.47,0.03-20.2-0.02c-1.85-0.01-2.82,0.35-2.32,2.56
	c2.96,13.13,5.84,26.27,8.75,39.41c0.33,1.48,1,2.44,2.75,2.44c11.72-0.04,23.45-0.02,35.17-0.01c1.79,0,2.36-0.8,2.2-2.58
	c-1.17-12.77-2.34-25.55-3.32-38.33c-0.21-2.8-1.31-3.57-3.95-3.51C160.35,203,153.99,202.9,147.63,202.9z M214.94,202.9
	c-5.11,0-10.23,0-15.34,0c-5.87,0-5.95,0.17-5.41,6.19c1.02,11.41,2.06,22.83,2.85,34.26c0.22,3.12,1.43,4.04,4.4,3.99
	c7.98-0.14,15.97-0.02,23.95-0.05c6.87-0.03,7.14,1.01,7.28-6.7c0.02-0.99,0.21-1.98,0.3-2.98c0.87-10.18,1.66-20.36,2.64-30.53
	c0.33-3.37-0.93-4.37-4.19-4.23C225.93,203.07,220.43,202.9,214.94,202.9z M287.32,179.91c7.47,0,14.95-0.08,22.42,0.05
	c2.44,0.04,3.61-0.84,4.16-3.18c1.26-5.33,2.74-10.61,4.06-15.92c0.89-3.57,0.53-3.84-3.12-3.42c-8.33,0.96-16.63,0.89-24.91-0.7
	c-8.27-1.59-16.05-4.47-23.43-8.5c-1.05-0.57-2.56-2-2.79,0.78c-0.75,9.05-1.45,18.1-2.29,27.14c-0.28,3.05,0.97,3.87,3.84,3.81
	C272.62,179.82,279.97,179.92,287.32,179.91z M147.55,337.03c5.59-0.07,10.8-5.32,10.8-10.89c0-5.57-5.2-10.82-10.79-10.9
	c-5.68-0.08-11.13,5.42-10.99,11.07C136.72,331.94,142.01,337.11,147.55,337.03z M270.63,326.16c0.01-5.56-5.18-10.82-10.78-10.91
	c-5.53-0.09-10.84,5.07-11,10.69c-0.16,5.65,5.28,11.16,10.97,11.1C265.4,336.97,270.62,331.73,270.63,326.16z"/>
<path class="st0" d="M316.15,56.66c0,2.37,0.14,4.75-0.04,7.1c-0.22,2.86,0.71,4.06,3.77,3.93c4.97-0.22,9.97,0.04,14.95-0.09
	c2.62-0.07,3.89,0.67,3.81,3.56c-0.16,5.35-0.14,10.72-0.01,16.07c0.07,2.66-1.08,3.46-3.57,3.41c-5.23-0.11-10.47,0.06-15.7-0.06
	c-2.45-0.05-3.3,0.9-3.25,3.3c0.11,5.23-0.06,10.47,0.06,15.7c0.06,2.55-0.85,3.58-3.46,3.52c-5.35-0.13-10.72-0.12-16.07,0
	c-2.56,0.06-3.57-0.87-3.51-3.47c0.13-4.98-0.11-9.97,0.08-14.95c0.12-3.02-0.77-4.26-3.98-4.12c-4.97,0.22-9.97-0.02-14.95,0.08
	c-2.45,0.05-3.68-0.66-3.61-3.37c0.13-5.48,0.11-10.96,0.01-16.44c-0.05-2.48,1.04-3.25,3.37-3.22c5.23,0.09,10.47-0.08,15.7,0.06
	c2.63,0.07,3.51-0.92,3.44-3.5c-0.13-5.23,0.03-10.47-0.06-15.7c-0.04-2.37,0.84-3.37,3.27-3.32c5.48,0.1,10.96,0.1,16.45,0
	c2.39-0.04,3.4,0.86,3.3,3.28c-0.11,2.74-0.03,5.48-0.03,8.22C316.14,56.66,316.14,56.66,316.15,56.66z"/>
</svg>
